<?xml version="1.0" standalone="no"?>
<!DOCTYPE svg PUBLIC "-//W3C//DTD SVG 20010904//EN"
 "http://www.w3.org/TR/2001/REC-SVG-20010904/DTD/svg10.dtd">
<svg version="1.0" xmlns="http://www.w3.org/2000/svg"
 width="512.000000pt" height="512.000000pt" viewBox="0 0 512.000000 512.000000"
 preserveAspectRatio="xMidYMid meet">

<g transform="translate(0.000000,512.000000) scale(0.100000,-0.100000)"
fill="#FFFFFF" stroke="none">
<path d="M1672 3965 c-530 -129 -970 -239 -978 -246 -11 -9 -14 -58 -14 -258
0 -280 -1 -276 76 -301 l49 -17 5 -859 c3 -472 9 -867 13 -876 5 -10 42 -27
90 -42 761 -232 1674 -506 1686 -506 33 0 1747 503 1761 516 13 13 16 133 20
921 l5 906 69 23 c112 38 106 24 106 264 0 149 -3 211 -13 223 -15 21 -1809
487 -1871 486 -22 0 -475 -106 -1004 -234z m1847 -95 c449 -116 840 -218 869
-226 l53 -15 -3 -142 -3 -142 -920 -312 -920 -313 -545 166 c-592 180 -813
248 -1075 328 l-170 52 -3 167 -2 166 27 -9 c61 -20 1725 -490 1736 -490 31
-1 1484 405 1500 418 43 38 5 108 -55 100 -18 -3 -351 -93 -740 -201 l-708
-196 -757 215 c-417 118 -773 220 -792 226 -32 10 36 28 800 213 459 112 847
203 863 204 15 1 395 -94 845 -209z m738 -2406 c-1 -1 -360 -108 -797 -236
l-795 -234 -5 474 c-5 454 -6 474 -24 488 -27 19 -60 18 -79 -4 -15 -16 -17
-69 -19 -488 l-3 -470 -760 228 c-418 125 -777 232 -797 238 l-38 11 0 789 c0
516 3 790 10 790 5 0 375 -103 821 -230 446 -126 821 -230 833 -230 13 0 389
123 837 274 l814 274 3 -836 c1 -459 1 -836 -1 -838z"/>
<path d="M1060 1710 c-23 -23 -26 -49 -7 -74 19 -26 513 -171 545 -160 61 22
55 84 -10 108 -80 29 -473 146 -491 146 -9 0 -26 -9 -37 -20z"/>
<path d="M1712 1523 c-38 -33 -33 -80 11 -98 72 -30 197 -56 217 -45 32 17 43
46 28 77 -11 23 -28 30 -118 55 -125 33 -113 32 -138 11z"/>
</g>
</svg>
